<svg width="48" height="48" viewBox="0 0 48 48" fill="none" xmlns="http://www.w3.org/2000/svg">
<circle cx="24" cy="24" r="24" fill="#C59C5F"/>
<g filter="url(#filter0_d)">
<path d="M12.3133 12.3127C12.3145 12.3116 12.3157 12.3106 12.3169 12.3095C12.5154 12.1127 12.7889 12 13.0682 12H13.0696C13.3109 12 13.5472 12.083 13.7347 12.2334C16.287 14.272 18.8487 16.3762 21.349 18.4875C21.957 19.0008 22.5654 19.5181 23.1734 20.0384L30.1145 13.0973C30.7999 12.412 31.9151 12.4121 32.6004 13.0973L35.897 16.3939C36.0343 16.5313 36.0343 16.7538 35.897 16.8911C35.7597 17.0284 35.5371 17.0284 35.3999 16.8911L33.0976 14.5889L32.5945 15.092L34.8967 17.3942C35.034 17.5316 35.034 17.7541 34.8967 17.8914C34.8281 17.9601 34.7381 17.9944 34.6481 17.9944C34.5582 17.9944 34.4682 17.9601 34.3996 17.8914L32.0973 15.5892L31.5942 16.0923L33.8964 18.3946C34.0337 18.5319 34.0337 18.7545 33.8964 18.8918C33.8278 18.9604 33.7378 18.9947 33.6479 18.9947C33.5579 18.9947 33.4679 18.9604 33.3993 18.8918L31.097 16.5895L30.5939 17.0926L32.8961 19.3948C33.0334 19.5322 33.0334 19.7547 32.8961 19.892C32.8275 19.9606 32.7375 19.995 32.6476 19.995C32.5576 19.995 32.4676 19.9606 32.399 19.892L30.0968 17.5898L29.5936 18.0929L31.8959 20.3951C32.0332 20.5325 32.0332 20.755 31.8959 20.8923C31.8272 20.961 31.7372 20.9953 31.6473 20.9953C31.5573 20.9953 31.4673 20.961 31.3987 20.8923L29.0965 18.5901L28.5934 19.0932L30.8956 21.3954C31.0329 21.5328 31.0329 21.7554 30.8956 21.8926C30.827 21.9613 30.737 21.9956 30.647 21.9956C30.5571 21.9956 30.4671 21.9613 30.3984 21.8926L28.0962 19.5904L27.5931 20.0935L29.8953 22.3958C30.0326 22.5331 30.0326 22.7557 29.8953 22.893C29.8267 22.9616 29.7367 22.9959 29.6468 22.9959C29.5568 22.9959 29.4668 22.9616 29.3982 22.893L27.096 20.5907L26.5928 21.0939L28.895 23.3961C29.0323 23.5335 29.0323 23.756 28.895 23.8933C28.8264 23.9619 28.7364 23.9963 28.6464 23.9963C28.5565 23.9963 28.4665 23.9619 28.3979 23.8933L26.0956 21.5911L25.5748 22.1119C26.6543 23.052 27.7282 23.9976 28.79 24.9444C28.7904 24.9444 28.7904 24.9444 28.7904 24.945C29.1059 25.2255 29.4499 25.5487 29.7894 25.8548C29.9973 26.0052 29.9577 26.2696 29.8545 26.3728C29.8545 26.3728 29.8545 26.3732 29.854 26.3732C29.5156 26.7829 29.3286 27.3061 29.3286 27.8469C29.3286 28.4793 29.5719 29.0709 30.0138 29.5124C30.0183 29.5169 31.0696 30.5682 31.0741 30.5727C32.603 32.1372 35.2953 31.0696 35.2969 28.8539C35.2959 27.5087 34.2095 26.3977 32.8369 26.3967C32.0893 26.3972 31.3914 26.73 30.9221 27.3089C30.7949 27.4658 30.5612 27.4827 30.4131 27.3483C30.4112 27.3469 30.4098 27.3455 30.4079 27.3436L30.4046 27.3407C30.24 27.1927 30.2516 26.9259 30.4356 26.7942C31.0365 26.0948 31.9107 25.6936 32.8346 25.6936H32.8393C34.597 25.6936 36.002 27.1249 36 28.8539C36.0015 30.1568 35.2053 31.3075 34.0275 31.7859C33.3281 32.0692 32.562 32.0887 31.8699 31.8668C32.5296 33.9188 30.9944 36 28.8606 36H28.8569C27.1133 36 25.6923 34.5885 25.6943 32.8378C25.6933 32.0058 26.0139 31.2206 26.5957 30.6262C26.5953 30.6258 25.8778 29.8102 25.8778 29.8102C24.6113 28.4008 23.3584 26.985 22.1208 25.5657L21.5911 26.0954L23.8933 28.3976C24.0306 28.535 24.0306 28.7575 23.8933 28.8948C23.8246 28.9635 23.7346 28.9978 23.6447 28.9978C23.5547 28.9978 23.4647 28.9635 23.3961 28.8948L21.0938 26.5926L20.5907 27.0957L22.893 29.3979C23.0303 29.5353 23.0303 29.7579 22.893 29.8952C22.8243 29.9638 22.7343 29.9981 22.6443 29.9981C22.5544 29.9981 22.4644 29.9638 22.3957 29.8952L20.0935 27.5929L19.5904 28.096L21.8926 30.3982C22.0299 30.5356 22.0299 30.7581 21.8926 30.8954C21.824 30.964 21.734 30.9984 21.644 30.9984C21.5541 30.9984 21.4641 30.964 21.3954 30.8954L19.0932 28.5932L18.5901 29.0963L20.8923 31.3985C21.0296 31.5359 21.0296 31.7584 20.8923 31.8957C20.8237 31.9644 20.7337 31.9987 20.6437 31.9987C20.5538 31.9987 20.4638 31.9644 20.3951 31.8957L18.0929 29.5935L17.5897 30.0966L19.892 32.3988C20.0293 32.5361 20.0293 32.7587 19.892 32.896C19.8233 32.9646 19.7333 32.9989 19.6433 32.9989C19.5534 32.9989 19.4634 32.9646 19.3947 32.896L17.0925 30.5938L16.5894 31.0968L18.8917 33.3991C19.029 33.5364 19.029 33.759 18.8917 33.8963C18.823 33.9649 18.733 33.9992 18.643 33.9992C18.5531 33.9992 18.4631 33.9649 18.3944 33.8963L16.0922 31.594L15.5891 32.0971L17.8913 34.3993C18.0286 34.5367 18.0286 34.7592 17.8913 34.8965C17.8227 34.9652 17.7327 34.9995 17.6427 34.9995C17.5528 34.9995 17.4628 34.9652 17.3941 34.8965L15.0919 32.5943L14.5888 33.0974L16.891 35.3996C17.0283 35.5369 17.0283 35.7595 16.891 35.8968C16.8224 35.9654 16.7324 35.9997 16.6424 35.9997C16.5525 35.9997 16.4625 35.9654 16.3938 35.8968L13.8433 33.3463C13.8432 33.3462 13.8431 33.346 13.8429 33.346C13.8428 33.3459 13.8427 33.3457 13.8426 33.3456L13.0972 32.6002C12.7652 32.2682 12.5823 31.8267 12.5823 31.3572C12.5823 30.8876 12.7652 30.4462 13.0972 30.1142L20.046 23.1659C17.3505 20.0214 14.7374 16.8674 12.2337 13.7339C11.8939 13.3087 11.9282 12.6977 12.3133 12.3127ZM32.6004 14.0917L32.1032 13.5945C31.6921 13.1834 31.0229 13.1834 30.6117 13.5945L23.7085 20.4978C24.1538 20.8804 24.5988 21.264 25.0429 21.6493L32.6004 14.0917ZM13.5945 30.6117C13.3953 30.8109 13.2855 31.0757 13.2855 31.3575C13.2855 31.6392 13.3953 31.904 13.5945 32.1032L14.0917 32.6004C14.324 32.3681 21.1592 25.5328 21.658 25.0341C21.2723 24.59 20.8878 24.1457 20.5052 23.7011L13.5945 30.6117ZM26.2052 29.1218C26.3756 28.9913 26.8299 28.7655 26.9055 28.124C26.9266 27.9469 27.0761 27.8137 27.2537 27.8137C27.4661 27.8137 27.628 27.9982 27.6039 28.2066C27.6034 28.2066 27.6034 28.2066 27.6034 28.2066C27.5364 28.7798 27.2251 29.2866 26.7498 29.5964C26.725 29.6128 26.7001 29.6297 26.6744 29.6484C26.9182 29.9266 27.1195 30.1608 27.3503 30.4157C27.4145 30.487 27.4473 30.583 27.4398 30.6787C27.4328 30.7743 27.3855 30.8643 27.3109 30.9248C26.7209 31.4064 26.3979 32.0996 26.3973 32.8378C26.3983 34.1927 27.4898 35.2959 28.8582 35.2968C30.2108 35.2951 31.3191 34.205 31.3191 32.8378C31.3175 31.7251 30.6138 31.1292 30.5597 31.0528L29.5168 30.0098C28.9422 29.4352 28.6253 28.6578 28.6253 27.8469C28.6248 27.2544 28.7945 26.6821 29.1151 26.1928C28.8398 25.9411 28.6004 25.7177 28.3224 25.4699L28.321 25.468C20.6985 18.6715 13.3856 12.8292 13.2482 12.7505C13.3424 12.8447 27.0592 26.5556 27.1225 26.6269C27.2514 26.7722 27.2378 26.9949 27.093 27.1233C26.9474 27.2529 26.7244 27.2378 26.5966 27.0938C26.5545 27.0459 12.8514 13.3478 12.751 13.2473C12.7797 13.2979 18.4415 20.4693 26.2052 29.1218Z" fill="#1E1C1A"/>
<path d="M31.5928 27.6124C32.7017 26.5036 34.5938 27.3026 34.5937 28.8552C34.5937 29.3244 34.4108 29.7657 34.0786 30.0979C33.7359 30.4406 33.2859 30.6118 32.8357 30.6118C32.3857 30.6118 31.9355 30.4405 31.5928 30.0979C30.9067 29.4119 30.9066 28.2985 31.5928 27.6124ZM32.0899 29.6007C32.5012 30.0117 33.1702 30.0118 33.5815 29.6007C34.2401 28.9421 33.7789 27.8013 32.8357 27.8013C31.8898 27.8013 31.4343 28.9452 32.0899 29.6007Z" fill="#1E1C1A"/>
<path d="M28.8566 31.0806C29.5795 31.0806 30.2004 31.4956 30.4772 32.1638C30.7553 32.8352 30.6106 33.5698 30.0995 34.0808C29.76 34.4201 29.3227 34.5981 28.8711 34.5981C28.643 34.5981 28.4111 34.5526 28.1866 34.4596C27.5157 34.1816 27.0989 33.5603 27.0989 32.838C27.0989 31.869 27.8874 31.0806 28.8566 31.0806ZM28.4557 33.8101C28.7703 33.9403 29.2366 33.9492 29.6024 33.5836C29.9684 33.2176 29.9587 32.7492 29.8276 32.4328C29.6977 32.119 29.3743 31.7836 28.8567 31.7836C28.2751 31.7836 27.802 32.2566 27.802 32.838C27.802 33.355 28.1397 33.6791 28.4557 33.8101Z" fill="#1E1C1A"/>
</g>
<defs>
<filter id="filter0_d" x="10" y="12" width="28" height="30" filterUnits="userSpaceOnUse" color-interpolation-filters="sRGB">
<feFlood flood-opacity="0" result="BackgroundImageFix"/>
<feColorMatrix in="SourceAlpha" type="matrix" values="0 0 0 0 0 0 0 0 0 0 0 0 0 0 0 0 0 0 127 0"/>
<feOffset dy="4"/>
<feGaussianBlur stdDeviation="1"/>
<feColorMatrix type="matrix" values="0 0 0 0 0.117647 0 0 0 0 0.109804 0 0 0 0 0.101961 0 0 0 0.1 0"/>
<feBlend mode="normal" in2="BackgroundImageFix" result="effect1_dropShadow"/>
<feBlend mode="normal" in="SourceGraphic" in2="effect1_dropShadow" result="shape"/>
</filter>
</defs>
</svg>
