<svg width="54" height="54" viewBox="0 0 54 54" fill="none" xmlns="http://www.w3.org/2000/svg">
<circle cx="2" cy="32" r="2" fill="#C59C5F"/>
<circle cx="2" cy="2" r="2" fill="#C59C5F"/>
<circle cx="2" cy="42" r="2" fill="#C59C5F"/>
<circle cx="2" cy="12" r="2" fill="#C59C5F"/>
<circle cx="2" cy="52" r="2" fill="#C59C5F"/>
<circle cx="2" cy="22" r="2" fill="#C59C5F"/>
<circle cx="12" cy="32" r="2" fill="#C59C5F"/>
<circle cx="12" cy="2" r="2" fill="#C59C5F"/>
<circle cx="12" cy="42" r="2" fill="#C59C5F"/>
<circle cx="12" cy="12" r="2" fill="#C59C5F"/>
<circle cx="12" cy="52" r="2" fill="#C59C5F"/>
<circle cx="12" cy="22" r="2" fill="#C59C5F"/>
<circle cx="22" cy="32" r="2" fill="#C59C5F"/>
<circle cx="22" cy="2" r="2" fill="#C59C5F"/>
<circle cx="22" cy="42" r="2" fill="#C59C5F"/>
<circle cx="22" cy="12" r="2" fill="#C59C5F"/>
<circle cx="22" cy="52" r="2" fill="#C59C5F"/>
<circle cx="22" cy="22" r="2" fill="#C59C5F"/>
<circle cx="32" cy="32" r="2" fill="#C59C5F"/>
<circle cx="32" cy="2" r="2" fill="#C59C5F"/>
<circle cx="32" cy="42" r="2" fill="#C59C5F"/>
<circle cx="32" cy="12" r="2" fill="#C59C5F"/>
<circle cx="32" cy="52" r="2" fill="#C59C5F"/>
<circle cx="32" cy="22" r="2" fill="#C59C5F"/>
<circle cx="42" cy="32" r="2" fill="#C59C5F"/>
<circle cx="42" cy="2" r="2" fill="#C59C5F"/>
<circle cx="42" cy="42" r="2" fill="#C59C5F"/>
<circle cx="42" cy="12" r="2" fill="#C59C5F"/>
<circle cx="42" cy="52" r="2" fill="#C59C5F"/>
<circle cx="42" cy="22" r="2" fill="#C59C5F"/>
<circle cx="52" cy="32" r="2" fill="#C59C5F"/>
<circle cx="52" cy="2" r="2" fill="#C59C5F"/>
<circle cx="52" cy="42" r="2" fill="#C59C5F"/>
<circle cx="52" cy="12" r="2" fill="#C59C5F"/>
<circle cx="52" cy="52" r="2" fill="#C59C5F"/>
<circle cx="52" cy="22" r="2" fill="#C59C5F"/>
</svg>
