<svg width="1440" height="92" viewBox="0 0 1440 92" fill="none" xmlns="http://www.w3.org/2000/svg">
<path d="M-125.355 15.3553L-164.58 54.5797C-168.691 58.6905 -171 64.2661 -171 70.0797C-171 82.1859 -161.186 92 -149.08 92H1589.08C1601.19 92 1611 82.1859 1611 70.0797C1611 64.2661 1608.69 58.6905 1604.58 54.5797L1565.36 15.3553C1545.83 -4.17087 1514.17 -4.17087 1494.64 15.3553L1484.36 25.6447C1464.83 45.1709 1433.17 45.1709 1413.64 25.6447L1403.36 15.3553C1383.83 -4.17087 1352.17 -4.17087 1332.64 15.3553L1322.36 25.6447C1302.83 45.1709 1271.17 45.1709 1251.64 25.6447L1241.36 15.3553C1221.83 -4.17087 1190.17 -4.17087 1170.64 15.3553L1160.36 25.6447C1140.83 45.1709 1109.17 45.1709 1089.64 25.6447L1079.36 15.3553C1059.83 -4.17087 1028.17 -4.17087 1008.64 15.3553L998.355 25.6447C978.829 45.1709 947.171 45.1709 927.645 25.6447L917.355 15.3553C897.829 -4.17087 866.171 -4.17087 846.645 15.3553L836.355 25.6447C816.829 45.1709 785.171 45.1709 765.645 25.6447L755.355 15.3553C735.829 -4.17087 704.171 -4.17087 684.645 15.3553L674.355 25.6447C654.829 45.1709 623.171 45.1709 603.645 25.6447L593.355 15.3553C573.829 -4.17087 542.171 -4.17087 522.645 15.3553L512.355 25.6447C492.829 45.1709 461.171 45.1709 441.645 25.6447L431.355 15.3553C411.829 -4.17087 380.171 -4.17087 360.645 15.3553L350.355 25.6447C330.829 45.1709 299.171 45.1709 279.645 25.6447L269.355 15.3553C249.829 -4.17087 218.171 -4.17087 198.645 15.3553L188.355 25.6447C168.829 45.1709 137.171 45.1709 117.645 25.6447L107.355 15.3553C87.8291 -4.17087 56.1709 -4.17087 36.6447 15.3553L26.3553 25.6447C6.82913 45.1709 -24.8291 45.1709 -44.3553 25.6447L-54.6447 15.3553C-74.1709 -4.17087 -105.829 -4.17087 -125.355 15.3553Z" fill="white"/>
</svg>
