<svg xmlns="http://www.w3.org/2000/svg" viewBox="0 0 65 55" width="65" height="55">
	<style>
		tspan { white-space:pre }
		.shp0 { fill: #d41332 } 
		.shp1 { fill: #ffffff } 
	</style>
	<g id="newsletter">
		<g id="google button">
			<path id="Rechteck 9 Kopie 3" class="shp0" d="M0 0L65 0L65 55L0 55L0 0Z" />
			<path id="google plus" class="shp1" d="M36.05 39.78C35.68 40.41 35.18 40.9 34.55 41.26C33.92 41.61 33.25 41.88 32.53 42.04C31.81 42.21 31.06 42.29 30.27 42.29C29.41 42.29 28.56 42.19 27.72 41.99C26.87 41.79 26.07 41.49 25.3 41.08C24.53 40.67 23.9 40.11 23.43 39.39C22.95 38.68 22.72 37.86 22.72 36.95C22.72 36.15 22.9 35.43 23.26 34.8C23.62 34.17 24.08 33.67 24.65 33.29C25.21 32.92 25.86 32.61 26.61 32.37C27.36 32.13 28.09 31.96 28.78 31.87C29.48 31.77 30.19 31.73 30.91 31.73C31.35 31.73 31.69 31.74 31.92 31.77C32 31.82 32.2 31.96 32.53 32.19C32.86 32.42 33.08 32.57 33.19 32.65C33.31 32.73 33.51 32.89 33.82 33.11C34.12 33.34 34.33 33.51 34.46 33.63C34.59 33.74 34.77 33.91 35.01 34.14C35.25 34.37 35.43 34.56 35.54 34.73C35.66 34.9 35.8 35.1 35.97 35.34C36.13 35.58 36.25 35.82 36.32 36.04C36.38 36.26 36.45 36.5 36.51 36.76C36.57 37.02 36.6 37.29 36.6 37.57C36.6 38.42 36.41 39.15 36.05 39.78ZM33.31 23.48C32.73 24.29 31.79 24.7 30.49 24.7C29.81 24.7 29.16 24.52 28.54 24.17C27.93 23.83 27.4 23.37 26.98 22.82C26.55 22.26 26.17 21.64 25.85 20.94C25.53 20.24 25.29 19.55 25.14 18.85C24.98 18.15 24.91 17.49 24.91 16.86C24.91 15.58 25.25 14.47 25.93 13.55C26.61 12.62 27.58 12.16 28.82 12.16C29.71 12.16 30.51 12.44 31.22 12.98C31.94 13.53 32.5 14.23 32.91 15.07C33.32 15.92 33.63 16.79 33.86 17.69C34.08 18.6 34.19 19.45 34.19 20.26C34.19 21.6 33.9 22.67 33.31 23.48ZM27.8 11.12C25.94 11.53 24.37 12.48 23.1 13.96C21.83 15.44 21.19 17.12 21.19 18.99C21.19 20.97 21.9 22.62 23.33 23.93C24.76 25.25 26.47 25.9 28.46 25.9C28.86 25.9 29.33 25.87 29.87 25.8C29.84 25.91 29.79 26.05 29.73 26.23C29.66 26.41 29.61 26.56 29.57 26.67C29.53 26.77 29.49 26.9 29.47 27.06C29.44 27.21 29.43 27.37 29.43 27.53C29.43 28.41 29.85 29.41 30.71 30.52C29.69 30.55 28.69 30.64 27.7 30.79C26.71 30.95 25.67 31.19 24.58 31.52C23.5 31.84 22.53 32.32 21.67 32.94C20.81 33.57 20.17 34.31 19.74 35.16C19.25 36.15 19 37.06 19 37.87C19 38.77 19.2 39.59 19.6 40.32C20 41.05 20.52 41.64 21.15 42.1C21.78 42.57 22.51 42.95 23.33 43.27C24.15 43.58 24.97 43.81 25.78 43.94C26.59 44.08 27.39 44.14 28.18 44.14C31.77 44.14 34.58 43.27 36.62 41.51C38.49 39.88 39.43 37.99 39.43 35.85C39.43 35.08 39.32 34.37 39.1 33.71C38.88 33.04 38.59 32.47 38.24 32C37.88 31.52 37.49 31.08 37.06 30.67C36.63 30.26 36.2 29.89 35.77 29.56C35.35 29.22 34.95 28.9 34.6 28.59C34.24 28.29 33.96 27.96 33.74 27.63C33.51 27.29 33.4 26.95 33.4 26.6C33.4 26.12 33.56 25.67 33.87 25.25C34.17 24.83 34.55 24.42 34.99 24.02C35.43 23.63 35.87 23.2 36.32 22.73C36.76 22.26 37.13 21.64 37.44 20.87C37.75 20.1 37.9 19.22 37.9 18.23C37.9 17.05 37.64 15.92 37.12 14.83C36.6 13.75 35.86 12.9 34.91 12.3L37.62 12.3L40.33 10.71L31.56 10.71C30.31 10.71 29.06 10.85 27.8 11.12L27.8 11.12ZM47.29 15.86L47.29 10.71L44.71 10.71L44.71 15.86L39.57 15.86L39.57 18.43L44.71 18.43L44.71 23.57L47.29 23.57L47.29 18.43L52.43 18.43L52.43 15.86L47.29 15.86Z" />
		</g>
	</g>
</svg>