<svg width="44" height="44" viewBox="0 0 44 44" fill="none" xmlns="http://www.w3.org/2000/svg">
<circle cx="22" cy="22" r="21.5" stroke="#686868"/>
<path d="M22.0001 7C13.7159 7 7 13.7439 7 22.0628C7 29.5239 12.4078 35.7029 19.4984 36.8994V25.2053H15.8799V20.9971H19.4984V17.8941C19.4984 14.2938 21.6882 12.3318 24.8871 12.3318C26.4191 12.3318 27.7357 12.4464 28.1179 12.4969V16.2602L25.8993 16.2613C24.16 16.2613 23.8247 17.0911 23.8247 18.3092V20.9949H27.9748L27.4335 25.2032H23.8247V37C31.2463 36.093 37 29.7565 37 22.0585C37 13.7439 30.2841 7 22.0001 7Z" fill="#686868"/>
</svg>
