<svg width="44" height="44" viewBox="0 0 44 44" fill="none" xmlns="http://www.w3.org/2000/svg">
<circle cx="22" cy="22" r="21.5" stroke="#686868"/>
<path d="M24.8711 22C24.8711 23.5857 23.5857 24.8711 22 24.8711C20.4143 24.8711 19.1289 23.5857 19.1289 22C19.1289 20.4143 20.4143 19.1289 22 19.1289C23.5857 19.1289 24.8711 20.4143 24.8711 22Z" fill="#686868"/>
<path d="M28.7144 16.9199C28.5764 16.5459 28.3562 16.2074 28.0701 15.9295C27.7923 15.6434 27.454 15.4232 27.0797 15.2852C26.7762 15.1674 26.3203 15.0271 25.4805 14.9888C24.5721 14.9474 24.2997 14.9385 21.9999 14.9385C19.6999 14.9385 19.4275 14.9472 18.5193 14.9886C17.6796 15.0271 17.2234 15.1674 16.9201 15.2852C16.5459 15.4232 16.2074 15.6434 15.9298 15.9295C15.6437 16.2074 15.4235 16.5457 15.2852 16.9199C15.1674 17.2234 15.0271 17.6796 14.9888 18.5193C14.9474 19.4275 14.9385 19.6999 14.9385 21.9999C14.9385 24.2997 14.9474 24.5721 14.9888 25.4805C15.0271 26.3203 15.1674 26.7762 15.2852 27.0797C15.4235 27.454 15.6434 27.7923 15.9295 28.0701C16.2074 28.3562 16.5457 28.5764 16.9199 28.7144C17.2234 28.8325 17.6796 28.9728 18.5193 29.011C19.4275 29.0525 19.6997 29.0612 21.9997 29.0612C24.3 29.0612 24.5723 29.0525 25.4803 29.011C26.3201 28.9728 26.7762 28.8325 27.0797 28.7144C27.8309 28.4247 28.4247 27.8309 28.7144 27.0797C28.8323 26.7762 28.9726 26.3203 29.011 25.4805C29.0525 24.5721 29.0612 24.2997 29.0612 21.9999C29.0612 19.6999 29.0525 19.4275 29.011 18.5193C28.9728 17.6796 28.8325 17.2234 28.7144 16.9199ZM21.9999 26.4226C19.5571 26.4226 17.5768 24.4426 17.5768 21.9997C17.5768 19.5569 19.5571 17.5768 21.9999 17.5768C24.4426 17.5768 26.4229 19.5569 26.4229 21.9997C26.4229 24.4426 24.4426 26.4226 21.9999 26.4226ZM26.5977 18.4356C26.0269 18.4356 25.5641 17.9728 25.5641 17.4019C25.5641 16.8311 26.0269 16.3683 26.5977 16.3683C27.1685 16.3683 27.6313 16.8311 27.6313 17.4019C27.6311 17.9728 27.1685 18.4356 26.5977 18.4356Z" fill="#686868"/>
<path d="M22 7C13.717 7 7 13.717 7 22C7 30.283 13.717 37 22 37C30.283 37 37 30.283 37 22C37 13.717 30.283 7 22 7ZM30.5613 25.5511C30.5197 26.468 30.3739 27.094 30.161 27.6419C29.7135 28.7989 28.7989 29.7135 27.6419 30.161C27.0942 30.3739 26.468 30.5194 25.5513 30.5613C24.6328 30.6032 24.3394 30.6133 22.0002 30.6133C19.6608 30.6133 19.3676 30.6032 18.4489 30.5613C17.5322 30.5194 16.906 30.3739 16.3583 30.161C15.7833 29.9447 15.2629 29.6057 14.8326 29.1674C14.3945 28.7374 14.0555 28.2167 13.8392 27.6419C13.6264 27.0942 13.4806 26.468 13.4389 25.5513C13.3966 24.6326 13.3867 24.3392 13.3867 22C13.3867 19.6608 13.3966 19.3674 13.4387 18.4489C13.4803 17.532 13.6259 16.906 13.8388 16.3581C14.0551 15.7833 14.3943 15.2626 14.8326 14.8326C15.2626 14.3943 15.7833 14.0553 16.3581 13.839C16.906 13.6261 17.532 13.4806 18.4489 13.4387C19.3674 13.3968 19.6608 13.3867 22 13.3867C24.3392 13.3867 24.6326 13.3968 25.5511 13.4389C26.468 13.4806 27.094 13.6261 27.6419 13.8388C28.2167 14.0551 28.7374 14.3943 29.1677 14.8326C29.6057 15.2629 29.9449 15.7833 30.161 16.3581C30.3741 16.906 30.5197 17.532 30.5616 18.4489C30.6034 19.3674 30.6133 19.6608 30.6133 22C30.6133 24.3392 30.6034 24.6326 30.5613 25.5511Z" fill="#686868"/>
</svg>
