<svg width="15" height="21" viewBox="0 0 15 21" fill="none" xmlns="http://www.w3.org/2000/svg">
<path d="M13.0598 3.48653C11.8242 1.35415 9.62946 0.0513967 7.18886 0.0016105C7.08467 -0.000536833 6.97981 -0.000536833 6.87559 0.0016105C4.43503 0.0513967 2.24029 1.35415 1.00463 3.48653C-0.258402 5.66615 -0.292958 8.2843 0.912171 10.4901L5.9609 19.7311C5.96317 19.7352 5.96544 19.7393 5.96778 19.7433C6.18991 20.1294 6.58784 20.3599 7.0323 20.3599C7.47672 20.3599 7.87465 20.1294 8.09674 19.7433C8.09909 19.7393 8.10135 19.7352 8.10362 19.7311L13.1524 10.4901C14.3574 8.2843 14.3228 5.66615 13.0598 3.48653ZM7.03222 9.22559C5.4535 9.22559 4.16911 7.9412 4.16911 6.36248C4.16911 4.78375 5.4535 3.49937 7.03222 3.49937C8.61095 3.49937 9.89533 4.78375 9.89533 6.36248C9.89533 7.9412 8.61099 9.22559 7.03222 9.22559Z" fill="white"/>
</svg>
