<svg width="16" height="15" viewBox="0 0 16 15" fill="none" xmlns="http://www.w3.org/2000/svg">
<path d="M6.25083 8.78243C4.81762 7.34922 4.49401 5.91602 4.42101 5.3418C4.40061 5.18303 4.45525 5.02381 4.56883 4.91101L5.72865 3.75171C5.89926 3.5812 5.92954 3.31548 5.80166 3.11096L3.95501 0.24351C3.81353 0.0170469 3.52304 -0.0646859 3.28423 0.0547802L0.319695 1.45097C0.12658 1.54606 0.0129916 1.75124 0.0349177 1.96538C0.190251 3.44104 0.833589 7.06859 4.39848 10.6337C7.96338 14.1989 11.5904 14.842 13.0668 14.9973C13.281 15.0192 13.4862 14.9056 13.5813 14.7125L14.9774 11.748C15.0965 11.5097 15.0153 11.22 14.7898 11.0783L11.9223 9.23212C11.7179 9.10411 11.4522 9.13417 11.2816 9.30461L10.1223 10.4644C10.0095 10.578 9.85023 10.6327 9.69146 10.6123C9.11725 10.5392 7.68404 10.2156 6.25083 8.78243Z" fill="white"/>
</svg>
