<svg width="201" height="45" viewBox="0 0 201 45" fill="none" xmlns="http://www.w3.org/2000/svg">
<path d="M63.182 12.8H67.212V31H63.182V23.356H55.616V31H51.586V12.8H55.616V19.56H63.182V12.8ZM82.6785 31L81.3785 27.308H74.3845L73.0845 31H68.5605L75.7365 12.8H80.0005L87.1765 31H82.6785ZM75.6325 23.72H80.1305L77.8685 17.272L75.6325 23.72ZM104.701 12.8V31H101.269L92.5854 19.794H92.5594V31H88.5294V12.8H91.9354L100.645 24.058H100.671V12.8H104.701ZM113.675 12.8C116.587 12.8 118.953 13.6233 120.773 15.27C122.593 16.8993 123.503 19.1093 123.503 21.9C123.503 24.6907 122.593 26.9093 120.773 28.556C118.953 30.1853 116.587 31 113.675 31H107.877V12.8H113.675ZM114.013 16.466H111.907V27.334H114.013C115.521 27.334 116.752 26.8573 117.705 25.904C118.676 24.9333 119.161 23.5987 119.161 21.9C119.161 20.2013 118.676 18.8753 117.705 17.922C116.752 16.9513 115.521 16.466 114.013 16.466ZM139.396 12.8L132.844 24.422V31H128.814V24.474L122.262 12.8H127.098L130.79 20.418H130.842L134.56 12.8H139.396Z" fill="white"/>
<path d="M157.834 12.8L162.462 31H158.276L155.806 20.522H155.754L152.374 28.4H149.488L146.134 20.522H146.082L143.612 31H139.4L144.054 12.8H147.096L150.918 22.212H150.97L154.792 12.8H157.834ZM176.954 31L175.654 27.308H168.66L167.36 31H162.836L170.012 12.8H174.276L181.452 31H176.954ZM169.908 23.72H174.406L172.144 17.272L169.908 23.72ZM198.977 12.8V31H195.545L186.861 19.794H186.835V31H182.805V12.8H186.211L194.921 24.058H194.947V12.8H198.977Z" fill="#45A8F5"/>
<path fill-rule="evenodd" clip-rule="evenodd" d="M25.2464 5.69298L23.3798 0.0643686L19.9891 0L18.5159 5.63909C17.191 5.89576 15.9213 6.30724 14.7264 6.85396L10.0211 3.34247L7.21116 5.2412L9.29259 10.81C8.40968 11.7729 7.63696 12.8384 6.99441 13.9867L7.05148 13.8037L1.23833 13.77L0.0391026 16.9422L4.96208 20.2956C4.8901 20.9288 4.85311 21.5726 4.85311 22.225C4.85311 22.7796 4.87983 23.3278 4.93204 23.8687L0 27.425L0.889928 30.6975L6.91325 30.3167C7.60597 31.584 8.45635 32.7528 9.43802 33.7967L7.40496 39.261L10.1063 41.3114L14.6801 37.5749C15.834 38.1071 17.0581 38.513 18.3348 38.7749L18.3305 38.775L19.9344 44.3626L23.316 44.6204L25.23 38.7606C26.4433 38.5064 27.6087 38.122 28.711 37.6227L33.4528 41.3266L36.2408 39.3957L34.0695 33.7841C34.9538 32.8419 35.7312 31.7982 36.3824 30.6724H42.2759L43.4567 27.4933L38.5308 24.1795C38.6047 23.5383 38.6426 22.8861 38.6426 22.225C38.6426 21.5904 38.6076 20.9638 38.5395 20.3473L43.3468 17.0969L42.5444 13.8019L36.3964 13.8019C35.7609 12.6991 35.0045 11.6748 34.1452 10.7471L34.192 10.7804L36.1283 5.21483L33.4932 3.08002L28.5801 6.76878C27.5216 6.30018 26.4059 5.93713 25.2464 5.69298Z" fill="white"/>
<path d="M22 13.001C18.1833 13.001 15 16.0107 15 19.8536C15 21.3155 15.4488 22.6192 16.31 23.8408L21.4643 31.7142C21.7144 32.0969 22.2862 32.0962 22.5357 31.7142L27.7123 23.814C28.5551 22.6478 29 21.2784 29 19.8536C29 16.075 25.8598 13.001 22 13.001ZM22 22.9684C20.2456 22.9684 18.8182 21.571 18.8182 19.8536C18.8182 18.1361 20.2456 16.7388 22 16.7388C23.7544 16.7388 25.1818 18.1361 25.1818 19.8536C25.1818 21.571 23.7544 22.9684 22 22.9684Z" fill="#45A8F5"/>
</svg>
