<svg width="136" height="79" viewBox="0 0 136 79" fill="none" xmlns="http://www.w3.org/2000/svg">
<circle cx="1.5" cy="1.5" r="1.5" fill="#FC6F2F" fill-opacity="0.5"/>
<circle cx="14.5" cy="1.5" r="1.5" fill="#FC6F2F" fill-opacity="0.5"/>
<circle cx="27.5" cy="1.5" r="1.5" fill="#FC6F2F" fill-opacity="0.5"/>
<circle cx="40.5" cy="1.5" r="1.5" fill="#FC6F2F" fill-opacity="0.5"/>
<circle cx="53.5" cy="1.5" r="1.5" fill="#FC6F2F" fill-opacity="0.5"/>
<circle cx="66.5" cy="1.5" r="1.5" fill="#FC6F2F" fill-opacity="0.5"/>
<circle cx="79.5" cy="1.5" r="1.5" fill="#FC6F2F" fill-opacity="0.5"/>
<circle cx="92.5" cy="1.5" r="1.5" fill="#FC6F2F" fill-opacity="0.5"/>
<circle cx="108.5" cy="1.5" r="1.5" fill="#FC6F2F" fill-opacity="0.5"/>
<circle cx="121.5" cy="1.5" r="1.5" fill="#FC6F2F" fill-opacity="0.5"/>
<circle cx="134.5" cy="1.5" r="1.5" fill="#FC6F2F" fill-opacity="0.5"/>
<circle cx="1.5" cy="20.5" r="1.5" fill="#FC6F2F" fill-opacity="0.5"/>
<circle cx="14.5" cy="20.5" r="1.5" fill="#FC6F2F" fill-opacity="0.5"/>
<circle cx="27.5" cy="20.5" r="1.5" fill="#FC6F2F" fill-opacity="0.5"/>
<circle cx="40.5" cy="20.5" r="1.5" fill="#FC6F2F" fill-opacity="0.5"/>
<circle cx="53.5" cy="20.5" r="1.5" fill="#FC6F2F" fill-opacity="0.5"/>
<circle cx="66.5" cy="20.5" r="1.5" fill="#FC6F2F" fill-opacity="0.5"/>
<circle cx="79.5" cy="20.5" r="1.5" fill="#FC6F2F" fill-opacity="0.5"/>
<circle cx="92.5" cy="20.5" r="1.5" fill="#FC6F2F" fill-opacity="0.5"/>
<circle cx="108.5" cy="20.5" r="1.5" fill="#FC6F2F" fill-opacity="0.5"/>
<circle cx="121.5" cy="20.5" r="1.5" fill="#FC6F2F" fill-opacity="0.5"/>
<circle cx="134.5" cy="20.5" r="1.5" fill="#FC6F2F" fill-opacity="0.5"/>
<circle cx="1.5" cy="39.5" r="1.5" fill="#FC6F2F" fill-opacity="0.5"/>
<circle cx="14.5" cy="39.5" r="1.5" fill="#FC6F2F" fill-opacity="0.5"/>
<circle cx="27.5" cy="39.5" r="1.5" fill="#FC6F2F" fill-opacity="0.5"/>
<circle cx="40.5" cy="39.5" r="1.5" fill="#FC6F2F" fill-opacity="0.5"/>
<circle cx="53.5" cy="39.5" r="1.5" fill="#FC6F2F" fill-opacity="0.5"/>
<circle cx="66.5" cy="39.5" r="1.5" fill="#FC6F2F" fill-opacity="0.5"/>
<circle cx="79.5" cy="39.5" r="1.5" fill="#FC6F2F" fill-opacity="0.5"/>
<circle cx="92.5" cy="39.5" r="1.5" fill="#FC6F2F" fill-opacity="0.5"/>
<circle cx="108.5" cy="39.5" r="1.5" fill="#FC6F2F" fill-opacity="0.5"/>
<circle cx="121.5" cy="39.5" r="1.5" fill="#FC6F2F" fill-opacity="0.5"/>
<circle cx="134.5" cy="39.5" r="1.5" fill="#FC6F2F" fill-opacity="0.5"/>
<circle cx="1.5" cy="58.5" r="1.5" fill="#FC6F2F" fill-opacity="0.5"/>
<circle cx="14.5" cy="58.5" r="1.5" fill="#FC6F2F" fill-opacity="0.5"/>
<circle cx="27.5" cy="58.5" r="1.5" fill="#FC6F2F" fill-opacity="0.5"/>
<circle cx="40.5" cy="58.5" r="1.5" fill="#FC6F2F" fill-opacity="0.5"/>
<circle cx="53.5" cy="58.5" r="1.5" fill="#FC6F2F" fill-opacity="0.5"/>
<circle cx="66.5" cy="58.5" r="1.5" fill="#FC6F2F" fill-opacity="0.5"/>
<circle cx="79.5" cy="58.5" r="1.5" fill="#FC6F2F" fill-opacity="0.5"/>
<circle cx="92.5" cy="58.5" r="1.5" fill="#FC6F2F" fill-opacity="0.5"/>
<circle cx="108.5" cy="58.5" r="1.5" fill="#FC6F2F" fill-opacity="0.5"/>
<circle cx="121.5" cy="58.5" r="1.5" fill="#FC6F2F" fill-opacity="0.5"/>
<circle cx="134.5" cy="58.5" r="1.5" fill="#FC6F2F" fill-opacity="0.5"/>
<circle cx="1.5" cy="77.5" r="1.5" fill="#FC6F2F" fill-opacity="0.5"/>
<circle cx="14.5" cy="77.5" r="1.5" fill="#FC6F2F" fill-opacity="0.5"/>
<circle cx="27.5" cy="77.5" r="1.5" fill="#FC6F2F" fill-opacity="0.5"/>
<circle cx="40.5" cy="77.5" r="1.5" fill="#FC6F2F" fill-opacity="0.5"/>
<circle cx="53.5" cy="77.5" r="1.5" fill="#FC6F2F" fill-opacity="0.5"/>
<circle cx="66.5" cy="77.5" r="1.5" fill="#FC6F2F" fill-opacity="0.5"/>
<circle cx="79.5" cy="77.5" r="1.5" fill="#FC6F2F" fill-opacity="0.5"/>
<circle cx="92.5" cy="77.5" r="1.5" fill="#FC6F2F" fill-opacity="0.5"/>
<circle cx="108.5" cy="77.5" r="1.5" fill="#FC6F2F" fill-opacity="0.5"/>
<circle cx="121.5" cy="77.5" r="1.5" fill="#FC6F2F" fill-opacity="0.5"/>
<circle cx="134.5" cy="77.5" r="1.5" fill="#FC6F2F" fill-opacity="0.5"/>
</svg>
