<svg width="43" height="41" viewBox="0 0 43 41" fill="none" xmlns="http://www.w3.org/2000/svg">
<path d="M38.3131 26.6336C38.088 25.9002 37.7061 25.2116 37.1558 24.6336C35.6692 23.0811 33.4057 22.6742 31.5939 23.5591C31.5793 23.5617 31.5714 23.5551 31.5543 23.5591C29.5068 24.4795 26.3032 22.5452 24.6665 22.0146C23.7684 21.7236 22.9507 21.0935 22.1633 20.5339C23.4063 20.6149 24.7152 21.2825 25.3235 21.5998C25.442 21.6604 25.5447 21.6051 25.4762 21.5221C24.918 20.8697 24.4571 20.2626 24.1806 19.6899L25.7554 21.1231L25.9713 20.8874L23.9515 19.0493C23.9146 18.8899 23.9013 18.7339 23.9067 18.5785L26.1833 20.6511L26.398 20.4153L23.9646 18.2026C23.9922 18.1025 24.0304 18.003 24.0778 17.9043L26.5981 20.1954L26.8141 19.9591L24.2465 17.6258C24.307 17.5415 24.3715 17.4612 24.4466 17.3776L27.0274 19.7247L27.242 19.489L24.6599 17.1413C24.7218 17.0728 24.7942 16.9945 24.8758 16.9056L27.4567 19.2527L27.6726 19.0183L25.0918 16.6692C25.1523 16.6021 25.2222 16.5264 25.2906 16.45L27.8714 18.7984L28.086 18.5627L25.5053 16.215C25.5619 16.1518 25.621 16.0873 25.6817 16.0182L28.2625 18.3672L28.4772 18.1316L25.8963 15.7838C25.9661 15.7055 26.0372 15.6272 26.1109 15.5481L28.6917 17.8966L28.905 17.6608L26.3243 15.3118C26.3914 15.24 26.4573 15.1676 26.5244 15.0919L29.1052 17.4396L29.3199 17.2032L26.7377 14.8588C26.8074 14.7805 26.8773 14.7021 26.9511 14.6224L29.5319 16.9702L29.7452 16.7358L27.1644 14.388C27.2355 14.3097 27.3066 14.232 27.3803 14.1523L29.9611 16.5008L30.1745 16.265L27.5951 13.916C27.6622 13.8449 27.728 13.7718 27.7939 13.6981L30.3746 16.0452L30.588 15.8095L28.0072 13.4618C28.0599 13.4052 28.1125 13.3472 28.1625 13.2919L30.7433 15.6396L30.958 15.4032L28.3772 13.0562C28.4496 12.9765 28.5207 12.8981 28.5917 12.8198L31.1726 15.1675L31.3885 14.9318L28.8078 12.584C28.8736 12.511 28.9407 12.4386 29.0079 12.3642L31.5887 14.7132L31.802 14.4768L29.2213 12.1298C29.2924 12.0515 29.3634 11.9731 29.4359 11.8934L32.0167 14.2424L32.2287 14.0068L29.6505 11.6551C29.7228 11.5767 29.7927 11.497 29.8665 11.4187L32.4473 13.7677L32.6606 13.532L30.0798 11.183C30.1483 11.1106 30.2141 11.0362 30.28 10.9631L32.8608 13.3108L33.0767 13.0752L30.4945 10.7275C30.5512 10.6643 30.6078 10.6017 30.6658 10.5398L33.2465 12.8875L33.4612 12.6511L30.8803 10.3041C30.9462 10.2323 31.012 10.1585 31.0779 10.0855L33.6587 12.4333L33.8733 12.1969L31.2925 9.84973C31.3517 9.78455 31.411 9.7187 31.4702 9.65418L34.0511 12.0026L34.2656 11.7669L31.6848 9.41786C31.7559 9.33956 31.8283 9.26051 31.8995 9.18346L34.4803 11.5306L34.6937 11.2949L32.1128 8.94721C32.1813 8.87348 32.2485 8.79908 32.313 8.72793L34.8938 11.0751L35.1084 10.8393L32.5276 8.49161C32.6 8.41065 32.6711 8.33426 32.7422 8.25595L35.323 10.605L35.5363 10.3686L32.9556 8.02287C33.0293 7.94184 33.1004 7.8622 33.1715 7.78648L35.7524 10.1342L35.9657 9.8978L33.3875 7.55067C33.456 7.47495 33.5217 7.40254 33.5862 7.3308L36.1671 9.67785L36.3817 9.44345L33.801 7.09507C33.8563 7.03519 33.9063 6.97989 33.9562 6.92459L36.537 9.27231L36.7517 9.03791L34.1696 6.68753C34.2485 6.60126 34.3196 6.52296 34.3841 6.4518L36.965 8.79893L37.1796 8.56328L34.5986 6.21696C34.7092 6.09448 34.7723 6.02539 34.7723 6.02539C34.7816 6.01618 34.7895 6.00829 34.7987 5.99774L37.3795 8.34613L37.5929 8.11047L35.012 5.76275C35.0857 5.68172 35.1581 5.60407 35.228 5.52702L37.8088 7.8754L38.0235 7.64107L35.4426 5.29203C35.5177 5.20841 35.5887 5.12937 35.6572 5.05762L38.238 7.40534L38.454 7.16895L35.8732 4.82189C35.9509 4.73702 36.0154 4.66521 36.072 4.60202L38.6528 6.94915L38.8674 6.71474L36.2892 4.36894C36.3472 4.30118 36.4051 4.24189 36.4657 4.18659L39.036 6.52451L39.2519 6.28878L36.7265 3.99238C36.8265 3.92919 36.9292 3.87912 37.0319 3.84033L39.4653 6.05437L39.6812 5.81931L37.4032 3.74677C37.5586 3.727 37.714 3.72568 37.876 3.74544L39.8958 5.58365L40.1105 5.34725L38.5357 3.914C39.1178 4.12864 39.7471 4.51707 40.4318 4.99569C40.524 5.0602 40.6175 4.98647 40.545 4.87454C39.1559 2.73748 36.1945 2.09097 35.041 3.35767C34.7962 3.6282 34.2681 4.20694 33.5913 4.95093C33.5913 4.95093 29.3778 9.58251 26.3085 12.9574C26.1808 13.0963 26.0544 13.2365 25.9319 13.3715C24.6665 14.7606 23.65 15.8779 23.2958 16.2663L20.314 19.5456C20.2969 19.5417 20.2791 19.5318 20.2613 19.5279C20.1764 19.5088 20.023 19.4496 19.8084 19.358L10.684 0L15.685 16.9161C15.685 16.9161 15.7284 17.0741 15.7995 17.3493C9.64047 14.1128 0 7.92938 0 7.92938C0 7.92938 16.3717 22.2265 16.9595 22.7058C16.9839 22.8454 17.0188 22.9863 17.0524 23.1272L5.71401 35.5889L6.07546 35.918L17.373 24.1964C18.3843 27.0339 20.4259 30.0059 18.2862 31.5228C18.2809 31.532 18.2862 31.5412 18.2823 31.5518C16.3539 32.9066 15.9332 35.7706 17.379 38.0459C18.8636 40.3831 21.7473 41.2192 23.8093 39.9103C25.0761 39.1058 25.7055 37.477 26.2005 35.9101C25.7779 34.6513 25.429 34.1983 24.8574 33.2977C24.4835 32.7092 24.02 32.2179 23.5039 31.8282C22.3847 30.7642 19.1099 22.8204 19.4444 22.079C23.4368 22.0197 28.5378 25.1246 29.1185 28.0123C29.1237 28.0123 29.1343 28.0044 29.1396 28.0017C29.237 29.117 29.6926 30.1743 30.4906 31.0079C32.0969 32.6867 34.6212 33.0448 36.487 31.8597C36.7318 31.7045 36.9622 31.524 37.1716 31.3226C37.9327 30.5958 38.3764 29.6372 38.4949 28.5917C38.9294 28.4376 39.5589 28.2835 40.1554 28.4179C42.3596 28.9934 42.9548 27.1788 42.9995 26.6114C43.0442 26.0741 39.8576 27.6621 38.3131 26.6336ZM16.8167 20.7439C16.5323 20.2982 16.6653 19.703 17.1117 19.4186C17.5606 19.1355 18.1525 19.2678 18.4356 19.7155C18.72 20.1632 18.5884 20.7564 18.1407 21.0408C17.6943 21.3239 17.0998 21.1916 16.8167 20.7439ZM20.7255 32.3417C20.8374 32.3535 20.9493 32.3628 21.0599 32.3733C22.0107 32.5248 22.9587 33.1331 23.5802 34.1088C24.6165 35.7415 24.3544 37.7694 22.9981 38.6304C21.6419 39.4929 19.6938 38.8674 18.6582 37.236C17.6226 35.6046 17.8833 33.5742 19.2395 32.713C19.6885 32.426 20.202 32.3193 20.7255 32.3417ZM36.1287 30.2271C35.989 30.3587 35.8389 30.4799 35.6784 30.5826C34.417 31.3805 32.6973 31.1198 31.5873 29.9584C30.9671 29.3106 30.6221 28.4744 30.6142 27.6094C30.6076 26.7574 30.9302 25.9793 31.5215 25.4131C31.6598 25.2814 31.8112 25.1616 31.9718 25.0602C33.2319 24.2609 34.9503 24.523 36.0602 25.6804C36.6818 26.3296 37.0254 27.167 37.0333 28.0321C37.0398 28.8814 36.7159 29.6635 36.1287 30.2271Z" fill="#8B94B0"/>
</svg>
