<svg xmlns="http://www.w3.org/2000/svg" viewBox="0 0 65 54" width="65" height="54">
	<style>
		tspan { white-space:pre }
		.shp0 { fill: #36a4cf } 
		.shp1 { fill: #ffffff } 
	</style>
	<g id="newsletter">
		<g id="twitter button">
			<path id="Rechteck 9 Kopie 4" class="shp0" d="M0 0L65 0L65 55L0 55L0 0Z" />
			<path id="twitter" class="shp1" d="M44.81 18.34C46.21 17.5 47.16 16.31 47.66 14.77C46.37 15.53 45 16.05 43.54 16.33C42.26 14.97 40.68 14.29 38.8 14.29C37.01 14.29 35.48 14.92 34.21 16.18C32.95 17.45 32.31 18.98 32.31 20.77C32.31 21.26 32.37 21.75 32.47 22.26C29.82 22.13 27.33 21.46 25.01 20.26C22.69 19.06 20.71 17.47 19.09 15.47C18.5 16.48 18.21 17.57 18.21 18.75C18.21 19.86 18.47 20.89 18.99 21.84C19.52 22.79 20.22 23.56 21.1 24.15C20.06 24.11 19.08 23.83 18.17 23.33L18.17 23.41C18.17 24.97 18.66 26.35 19.65 27.53C20.63 28.72 21.87 29.47 23.37 29.77C22.81 29.92 22.24 30 21.67 30C21.29 30 20.88 29.96 20.44 29.89C20.85 31.19 21.62 32.26 22.73 33.1C23.84 33.94 25.1 34.37 26.51 34.4C24.15 36.24 21.46 37.17 18.45 37.17C17.87 37.17 17.35 37.14 16.88 37.09C19.9 39.03 23.22 40 26.85 40C29.15 40 31.31 39.64 33.34 38.9C35.36 38.18 37.09 37.2 38.52 35.97C39.95 34.75 41.19 33.34 42.23 31.74C43.26 30.15 44.04 28.49 44.55 26.75C45.06 25.02 45.31 23.28 45.31 21.54C45.31 21.16 45.3 20.88 45.29 20.69C46.56 19.77 47.65 18.65 48.54 17.34C47.3 17.87 46.05 18.21 44.81 18.34L44.81 18.34Z" />
		</g>
	</g>
</svg>